<?xml version="1.0" encoding="UTF-8"?>
<svg width="48px" height="48px" viewBox="0 0 48 48" version="1.1" xmlns="http://www.w3.org/2000/svg" xmlns:xlink="http://www.w3.org/1999/xlink">
    <title>3. iCon/3D/Base Logo</title>
    <g id="3.-iCon/3D/Base-Logo" stroke="none" stroke-width="1" fill="none" fill-rule="evenodd">
        <circle id="Oval" fill="#F0F5F9" cx="24" cy="24" r="24"></circle>
        <path d="M11.144,29 C11.3866667,29 11.5733333,28.9463333 11.704,28.839 C11.8346667,28.7316667 11.9,28.58 11.9,28.384 C11.9,27.964 11.648,27.754 11.144,27.754 L11.144,27.754 L6.608,27.754 C6.40266667,27.754 6.24166667,27.6886667 6.125,27.558 C6.00833333,27.4273333 5.95,27.25 5.95,27.026 L5.95,27.026 L5.95,19.802 C5.95,19.578 5.87766667,19.3983333 5.733,19.263 C5.58833333,19.1276667 5.39466667,19.06 5.152,19.06 C4.90933333,19.06 4.718,19.1253333 4.578,19.256 C4.438,19.3866667 4.368,19.5686667 4.368,19.802 L4.368,19.802 L4.368,27.012 C4.368,27.6373333 4.55233333,28.125 4.921,28.475 C5.28966667,28.825 5.80066667,29 6.454,29 L6.454,29 L11.144,29 Z M17.15,29.14 C18.186,29.14 19.0936667,28.93 19.873,28.51 C20.6523333,28.09 21.252,27.4973333 21.672,26.732 C22.092,25.9666667 22.302,25.0893333 22.302,24.1 C22.302,23.1106667 22.092,22.2333333 21.672,21.468 C21.252,20.7026667 20.6523333,20.11 19.873,19.69 C19.0936667,19.27 18.186,19.06 17.15,19.06 C16.114,19.06 15.2063333,19.27 14.427,19.69 C13.6476667,20.11 13.048,20.7026667 12.628,21.468 C12.208,22.2333333 11.998,23.1106667 11.998,24.1 C11.998,25.0893333 12.208,25.9666667 12.628,26.732 C13.048,27.4973333 13.6476667,28.09 14.427,28.51 C15.2063333,28.93 16.114,29.14 17.15,29.14 Z M17.15,27.866 C16.422,27.866 15.792,27.7143333 15.26,27.411 C14.728,27.1076667 14.3173333,26.6736667 14.028,26.109 C13.7386667,25.5443333 13.594,24.8746667 13.594,24.1 C13.594,23.344 13.734,22.6813333 14.014,22.112 C14.294,21.5426667 14.6953333,21.104 15.218,20.796 C15.7406667,20.488 16.3566667,20.334 17.066,20.334 C18.186,20.334 19.0703333,20.6676667 19.719,21.335 C20.3676667,22.0023333 20.692,22.924 20.692,24.1 C20.692,25.2666667 20.3746667,26.186 19.74,26.858 C19.1053333,27.53 18.242,27.866 17.15,27.866 Z M28.714,29.14 C29.5726667,29.14 30.3426667,28.9883333 31.024,28.685 C31.7053333,28.3816667 32.2373333,27.964 32.62,27.432 C33.0026667,26.9 33.194,26.2933333 33.194,25.612 L33.194,25.612 L33.194,25.066 C33.194,24.5806667 33.0656667,24.2213333 32.809,23.988 C32.5523333,23.7546667 32.158,23.638 31.626,23.638 L31.626,23.638 L29.036,23.638 C28.8026667,23.638 28.623,23.694 28.497,23.806 C28.371,23.918 28.308,24.0766667 28.308,24.282 C28.308,24.478 28.371,24.6296667 28.497,24.737 C28.623,24.8443333 28.8026667,24.898 29.036,24.898 L29.036,24.898 L30.968,24.898 C31.2106667,24.898 31.3763333,24.94 31.465,25.024 C31.5536667,25.108 31.598,25.2573333 31.598,25.472 L31.598,25.472 L31.598,25.836 C31.598,26.4613333 31.339,26.956 30.821,27.32 C30.303,27.684 29.6006667,27.866 28.714,27.866 C27.6313333,27.866 26.7843333,27.5346667 26.173,26.872 C25.5616667,26.2093333 25.256,25.29 25.256,24.114 C25.256,22.9286667 25.5616667,22.0023333 26.173,21.335 C26.7843333,20.6676667 27.6266667,20.334 28.7,20.334 C29.3253333,20.334 29.8643333,20.425 30.317,20.607 C30.7696667,20.789 31.15,21.062 31.458,21.426 C31.542,21.5193333 31.6423333,21.594 31.759,21.65 C31.8756667,21.706 31.9946667,21.734 32.116,21.734 C32.2466667,21.734 32.3726667,21.6966667 32.494,21.622 C32.6993333,21.4726667 32.802,21.2906667 32.802,21.076 C32.802,20.9266667 32.7553333,20.7866667 32.662,20.656 C32.298,20.1706667 31.7566667,19.7833333 31.038,19.494 C30.3193333,19.2046667 29.54,19.06 28.7,19.06 C27.6733333,19.06 26.7796667,19.2653333 26.019,19.676 C25.2583333,20.0866667 24.675,20.6723333 24.269,21.433 C23.863,22.1936667 23.66,23.0873333 23.66,24.114 C23.66,25.1406667 23.863,26.032 24.269,26.788 C24.675,27.544 25.2583333,28.125 26.019,28.531 C26.7796667,28.937 27.678,29.14 28.714,29.14 Z M39.718,29.14 C40.754,29.14 41.6616667,28.93 42.441,28.51 C43.2203333,28.09 43.82,27.4973333 44.24,26.732 C44.66,25.9666667 44.87,25.0893333 44.87,24.1 C44.87,23.1106667 44.66,22.2333333 44.24,21.468 C43.82,20.7026667 43.2203333,20.11 42.441,19.69 C41.6616667,19.27 40.754,19.06 39.718,19.06 C38.682,19.06 37.7743333,19.27 36.995,19.69 C36.2156667,20.11 35.616,20.7026667 35.196,21.468 C34.776,22.2333333 34.566,23.1106667 34.566,24.1 C34.566,25.0893333 34.776,25.9666667 35.196,26.732 C35.616,27.4973333 36.2156667,28.09 36.995,28.51 C37.7743333,28.93 38.682,29.14 39.718,29.14 Z M39.718,27.866 C38.99,27.866 38.36,27.7143333 37.828,27.411 C37.296,27.1076667 36.8853333,26.6736667 36.596,26.109 C36.3066667,25.5443333 36.162,24.8746667 36.162,24.1 C36.162,23.344 36.302,22.6813333 36.582,22.112 C36.862,21.5426667 37.2633333,21.104 37.786,20.796 C38.3086667,20.488 38.9246667,20.334 39.634,20.334 C40.754,20.334 41.6383333,20.6676667 42.287,21.335 C42.9356667,22.0023333 43.26,22.924 43.26,24.1 C43.26,25.2666667 42.9426667,26.186 42.308,26.858 C41.6733333,27.53 40.81,27.866 39.718,27.866 Z" id="LOGO" fill="#97D8DB" fill-rule="nonzero"></path>
    </g>
</svg>