<?xml version="1.0" encoding="UTF-8"?>
<svg width="48px" height="48px" viewBox="0 0 48 48" version="1.1" xmlns="http://www.w3.org/2000/svg" xmlns:xlink="http://www.w3.org/1999/xlink">
    <title>3. iCon/3D/Base 3D icon</title>
    <g id="3.-iCon/3D/Base-3D-icon" stroke="none" stroke-width="1" fill="none" fill-rule="evenodd">
        <circle id="Oval" fill="#F0F5F9" cx="24" cy="24" r="24"></circle>
        <path d="M18.452,30.16 C19.8813333,30.16 21.004,29.8693333 21.82,29.288 C22.636,28.7066667 23.044,27.8986667 23.044,26.864 C23.044,26.2026667 22.8946667,25.648 22.596,25.2 C22.2973333,24.752 21.8333333,24.384 21.204,24.096 L21.204,24.096 L21.204,24.064 C21.7053333,23.7866667 22.092,23.4506667 22.364,23.056 C22.636,22.6613333 22.772,22.2293333 22.772,21.76 C22.772,21.1413333 22.596,20.5973333 22.244,20.128 C21.892,19.6586667 21.3906667,19.2933333 20.74,19.032 C20.0893333,18.7706667 19.3373333,18.64 18.484,18.64 C17.684,18.64 16.9346667,18.784 16.236,19.072 C15.5373333,19.36 14.932,19.7706667 14.42,20.304 C14.26,20.4746667 14.18,20.6666667 14.18,20.88 C14.18,21.136 14.2973333,21.344 14.532,21.504 C14.6813333,21.6106667 14.8413333,21.664 15.012,21.664 C15.2573333,21.664 15.492,21.536 15.716,21.28 C16.0573333,20.896 16.4626667,20.6026667 16.932,20.4 C17.4013333,20.1973333 17.9186667,20.096 18.484,20.096 C19.284,20.096 19.8946667,20.24 20.316,20.528 C20.7373333,20.816 20.948,21.2266667 20.948,21.76 C20.948,22.272 20.796,22.6773333 20.492,22.976 C20.188,23.2746667 19.78,23.424 19.268,23.424 L19.268,23.424 L17.508,23.424 C17.22,23.424 16.996,23.4853333 16.836,23.608 C16.676,23.7306667 16.596,23.9093333 16.596,24.144 C16.596,24.3573333 16.676,24.528 16.836,24.656 C16.996,24.784 17.22,24.848 17.508,24.848 L17.508,24.848 L19.268,24.848 C19.9293333,24.848 20.42,25.0133333 20.74,25.344 C21.06,25.6746667 21.22,26.1813333 21.22,26.864 C21.22,27.4506667 20.9773333,27.904 20.492,28.224 C20.0066667,28.544 19.3266667,28.704 18.452,28.704 C17.812,28.704 17.22,28.5786667 16.676,28.328 C16.132,28.0773333 15.684,27.7226667 15.332,27.264 C15.1293333,26.9973333 14.9,26.864 14.644,26.864 C14.4733333,26.864 14.3133333,26.9173333 14.164,27.024 C13.9186667,27.2053333 13.796,27.4186667 13.796,27.664 C13.796,27.856 13.8706667,28.0426667 14.02,28.224 C14.5213333,28.8426667 15.1586667,29.32 15.932,29.656 C16.7053333,29.992 17.5453333,30.16 18.452,30.16 Z M29.3,30 C30.4946667,30 31.5293333,29.776 32.404,29.328 C33.2786667,28.88 33.948,28.2373333 34.412,27.4 C34.876,26.5626667 35.108,25.568 35.108,24.416 C35.108,23.264 34.8733333,22.2666667 34.404,21.424 C33.9346667,20.5813333 33.2653333,19.9333333 32.396,19.48 C31.5266667,19.0266667 30.4946667,18.8 29.3,18.8 L29.3,18.8 L27.06,18.8 C26.3346667,18.8 25.7693333,18.9973333 25.364,19.392 C24.9586667,19.7866667 24.756,20.3306667 24.756,21.024 L24.756,21.024 L24.756,27.728 C24.756,28.4426667 24.9666667,29 25.388,29.4 C25.8093333,29.8 26.3986667,30 27.156,30 L27.156,30 L29.3,30 Z M29.14,28.576 L27.316,28.576 C27.0813333,28.576 26.9,28.5013333 26.772,28.352 C26.644,28.2026667 26.58,28 26.58,27.744 L26.58,27.744 L26.58,21.056 C26.58,20.8 26.644,20.5973333 26.772,20.448 C26.9,20.2986667 27.0813333,20.224 27.316,20.224 L27.316,20.224 L29.14,20.224 C30.4946667,20.224 31.5186667,20.5786667 32.212,21.288 C32.9053333,21.9973333 33.252,23.04 33.252,24.416 C33.252,25.792 32.908,26.8293333 32.22,27.528 C31.532,28.2266667 30.5053333,28.576 29.14,28.576 L29.14,28.576 Z" id="3D" fill="#97D8DB" fill-rule="nonzero"></path>
    </g>
</svg>